# AST/ASF file generated using VICON BodyLanguage
# -----------------------------------------------
:version 1.10
:name VICON
:units
  mass 1.0
  length 0.45
  angle deg
:documentation
   .ast/.asf automatically generated from VICON data using
   VICON BodyBuilder and BodyLanguage model FoxedUp or BRILLIANT.MOD
:root
   order TX TY TZ RX RY RZ
   axis XYZ
   position 0 0 0  
   orientation 0 0 0 
:bonedata
  begin
     id 1 
     name lhipjoint
     direction 0.630305 -0.712092 0.309259 
     length 2.29033 
     axis 0 0 0  XYZ
  end
  begin
     id 2 
     name lfemur
     direction 0.34202 -0.939693 0  
     length 6.43538  
     axis 0 0 20  XYZ
    dof rx ry rz
    limits (-160.0 20.0)
           (-70.0 70.0)
           (-60.0 70.0)
  end
  begin
     id 3 
     name ltibia
     direction 0.34202 -0.939693 0   
     length 7.43097   
     axis 0 0 20   XYZ
    dof rx
    limits (-10.0 170.0)
  end
  begin
     id 4 
     name lfoot
     direction 0.0334653 -0.0919451 0.995202   
     length 1.78438   
     axis -90 7.62852e-016 20   XYZ
    dof rx rz
    limits (-45.0 90.0)
           (-70.0 20.0)
  end
  begin
     id 5 
     name ltoes
     direction 1.53535e-011 -4.21933e-011 1   
     length 0.90832   
     axis -90 7.62852e-016 20   XYZ
    dof rx
    limits (-90.0 20.0)
  end
  begin
     id 6 
     name rhipjoint
     direction -0.682059 -0.67077 0.291312   
     length 2.43143  
     axis 0 0 0  XYZ 
  end
  begin
     id 7 
     name rfemur
     direction -0.34202 -0.939693 0   
     length 6.63488   
     axis 0 0 -20   XYZ
    dof rx ry rz
    limits (-160.0 20.0)
           (-70.0 70.0)
           (-70.0 60.0)
  end
  begin
     id 8 
     name rtibia
     direction -0.34202 -0.939693 0   
     length 6.86532   
     axis 0 0 -20   XYZ
    dof rx
    limits (-10.0 170.0)
 end
 begin
     id 9 
     name rfoot
     direction -0.105199 -0.289033 0.951521   
     length 1.77126  
     axis -90 -7.62852e-016 -20   XYZ
    dof rx rz
    limits (-45.0 90.0)
           (-20.0 70.0)
  end
  begin
     id 10 
     name rtoes
     direction -1.53551e-011 -4.21978e-011 1   
     length 0.889273   
     axis -90 -7.62852e-016 -20   XYZ
    dof rx
    limits (-90.0 20.0)
  end
  begin
     id 11 
     name lowerback
     direction -0.0514305 0.998089 0.034245   
     length 2.02077   
     axis 0 0 0   XYZ
    dof rx ry rz
    limits (-20.0 45.0)
           (-30.0 30.0)
           (-30.0 30.0)
  end
  begin
     id 12 
     name upperback
     direction 0.0203189 0.999449 -0.0262315   
     length 2.01413   
     axis 0 0 0   XYZ
    dof rx ry rz
    limits (-20.0 45.0)
           (-30.0 30.0)
           (-30.0 30.0)
  end
  begin
     id 13 
     name thorax
     direction 0.0452736 0.998142 -0.0407729   
     length 2.02986   
     axis 0 0 0   XYZ
    dof rx ry rz
    limits (-20.0 45.0)
           (-30.0 30.0)
           (-30.0 30.0)
  end
  begin
     id 14 
     name lowerneck
     direction -0.0180464 0.999645 -0.0195774   
     length 1.59034   
     axis 0 0 0   XYZ
    dof rx ry rz
    limits (-20.0 45.0)
           (-30.0 30.0)
           (-30.0 30.0)
  end
  begin
     id 15 
     name upperneck
     direction 0.0732272 0.979935 -0.18538   
     length 1.57486   
     axis 0 0 0   XYZ
    dof rx ry rz
    limits (-20.0 45.0)
           (-30.0 30.0)
           (-30.0 30.0)
  end
  begin
     id 16
     name head
     direction 0.0252963 0.997909 -0.059472  
     length 1.60334  
     axis 0 0 0   XYZ
    dof rx ry rz
    limits (-20.0 45.0)
           (-30.0 30.0)
           (-30.0 30.0)
  end
  begin
     id 17 
     name lclavicle
     direction 0.943819 0.330449 0.00315172  
     length 3.50322  
     axis 0 0 0   XYZ
    dof ry rz
    limits (-20.0 10.0)
           (0.0 20.0)
  end
  begin
     id 18 
     name lhumerus
     direction 1 -4.48949e-011 2.22502e-028   
     length 4.63208   
     axis 180 -30 -90   XYZ
    dof rx ry rz
    limits (-60.0 90.0)
           (-90.0 90.0)
           (-90.0 90.0)
  end
  begin
     id 19
     name lradius
     direction 1 -4.48967e-011 -4.10197e-027   
     length 3.41924   
     axis 180 -30 -90   XYZ
    dof rx
    limits (-10.0 170.0)
  end
  begin
     id 20
     name lwrist
     direction 1 -4.48987e-011 -1.24264e-027   
     length 1.70962   
     axis 2.50585e-015 90 90   XYZ
    dof ry
    limits (-180.0 0.0)
 end
  begin
     id 21 
     name lhand
     direction 1 -4.48983e-011 -2.48528e-027   
     length 0.62537   
     axis 1.58582e-015 90 90   XYZ
    dof rx rz
    limits (-90.0 90.0)
           (-45.0 45.0)
  end
  begin
     id 22 
     name lfingers
     direction 1 -4.48896e-011 -4.97056e-027   
     length 0.50419   
     axis 3.17164e-015 90 90   XYZ
    dof rx
    limits (0.0 90.0)
  end
  begin
     id 23
     name lthumb
     direction 0.707107 -6.34803e-011 0.707107   
     length 0.723919   
     axis -90 45 2.85299e-015   XYZ
    dof rx rz
    limits (-45.0 45.0)
           (-45.0 45.0)
  end
  begin
     id 24 
     name rclavicle
     direction -0.964499 0.260664 -0.0423695   
     length 3.91997  
     axis 0 0 0   XYZ 
    dof ry rz
    limits (-10.0 20.0)
           (-20.0 0.0)
  end
  begin
     id 25 
     name rhumerus
     direction -1 -4.48957e-011 -1.98656e-027  
     length 4.4064   
     axis 180 30 90   XYZ
    dof rx ry rz
    limits (-90.0 60.0)
           (-90.0 90.0)
           (-90.0 90.0)
  end
  begin
     id 26 
     name rradius
     direction -1 -4.48968e-011 1.96972e-027   
     length 3.44675   
     axis 180 30 90   XYZ
    dof rx
    limits (-10.0 170.0)
  end
  begin
     id 27 
     name rwrist
     direction -1 -4.48974e-011 -1.24264e-027   
     length 1.72338   
     axis 2.50585e-015 -90 -90   XYZ
    dof ry
    limits (-180.0 0.0)
  end
  begin
     id 28
     name rhand
     direction -1 -4.48901e-011 -2.48528e-027   
     length 0.513674   
     axis 1.58582e-015 -90 -90   XYZ
    dof rx rz
    limits (-90.0 90.0)
           (-45.0 45.0)
  end
  begin
     id 29
     name rfingers
     direction -1 -4.48946e-011 -4.97056e-027   
     length 0.414137   
     axis 3.17164e-015 -90 -90   XYZ
    dof rx
    limits (0.0 90.0)
  end
  begin
     id 30
     name rthumb
     direction -0.707107 -6.34859e-011 0.707107   
     length 0.59462   
     axis -90 -45 -2.85299e-015   XYZ
    dof rx rz
    limits (-45.0 45.0)
           (-45.0 45.0)
  end
:hierarchy
  begin
    root lhipjoint rhipjoint lowerback
    lhipjoint lfemur
    lfemur ltibia
    ltibia lfoot
    lfoot ltoes
    rhipjoint rfemur
    rfemur rtibia
    rtibia rfoot
    rfoot rtoes
    lowerback upperback
    upperback thorax
    thorax lowerneck lclavicle rclavicle
    lowerneck upperneck
    upperneck head
    lclavicle lhumerus
    lhumerus lradius
    lradius lwrist
    lwrist lhand lthumb
    lhand lfingers
    rclavicle rhumerus
    rhumerus rradius
    rradius rwrist
    rwrist rhand rthumb
    rhand rfingers
  end

#!OML:ASF E:\inclinewalkrobotboard\Project 1\Capture day 1\Session 1\subject1.ASF
:FULLY-SPECIFIED
:DEGREES
239
root 11.8613 16.3232 0.324378 -7.67476 -38.3108 4.34217
lowerback 35.3417 7.69772 3.4577
upperback 19.5599 9.7678 15.0271
thorax 1.45061 3.88018 11.1581
lowerneck 5.7552 -2.60806 2.67878
upperneck -7.65195 -3.44841 -2.0412
head -3.59477 -1.71324 -0.973033
rclavicle -2.22639e-014 -5.725e-014
rhumerus 21.1228 38.0372 -104.287
rradius 130.149
rwrist -63.8171
rhand 71.6108 -73.2089
rfingers 7.12502
rthumb 72.9438 -0.285603
lclavicle -2.22639e-014 -5.725e-014
lhumerus 23.7129 -33.8822 97.863
lradius 63.477
lwrist -27.825
lhand 11.4217 -26.2034
lfingers 7.12502
lthumb 36.4735 -0.00462453
rfemur -87.238 -16.3045 25.848
rtibia 116.335
rfoot -16.0566 1.35661
rtoes -3.9279
lfemur -87.1468 0.263637 -31.4002
ltibia 119.906
lfoot -11.6801 0.239842
ltoes -58.4885
240
root 11.865 16.328 0.320477 -7.67599 -38.3444 4.37017
lowerback 35.3484 7.7091 3.41812
upperback 19.5501 9.77302 15.0297
thorax 1.42837 3.88027 11.1776
lowerneck 5.74282 -2.59114 2.71617
upperneck -7.61329 -3.42249 -2.05066
head -3.57932 -1.701 -0.984316
rclavicle 1.27222e-013 2.8625e-014
rhumerus 21.1047 38.003 -104.335
rradius 130.12
rwrist -63.8855
rhand 71.6827 -73.5397
rfingers 7.12502
rthumb 72.9101 -0.409919
lclavicle 1.27222e-013 2.8625e-014
lhumerus 23.6442 -33.8975 97.8855
lradius 63.5262
lwrist -27.759
lhand 11.0179 -26.2225
lfingers 7.12502
lthumb 36.0912 0.0715564
rfemur -87.2527 -16.3188 25.8672
rtibia 116.306
rfoot -16.0412 1.35581
rtoes -3.51553
lfemur -87.1289 0.259402 -31.3947
ltibia 119.859
lfoot -11.6509 0.207511
ltoes -58.3776
241
root 11.867 16.3191 0.321221 -7.68925 -38.2885 4.37876
lowerback 35.3772 7.66475 3.44227
upperback 19.5359 9.72914 15.0367
thorax 1.41298 3.8592 11.1851
lowerneck 5.71845 -2.58104 2.75473
upperneck -7.56174 -3.4107 -2.11447
head -3.55889 -1.69371 -1.01321
rclavicle 5.40694e-014 1.43125e-013
rhumerus 21.1633 37.9666 -104.276
rradius 130.055
rwrist -64.1417
rhand 71.7238 -73.8139
rfingers 7.12502
rthumb 72.8906 -0.566197
lclavicle 5.40694e-014 1.43125e-013
lhumerus 23.5952 -33.8348 97.9162
lradius 63.6347
lwrist -27.8944
lhand 10.9664 -26.3557
lfingers 7.12502
lthumb 36.0424 -0.0496305
rfemur -87.3693 -16.4457 25.8891
rtibia 116.374
rfoot -16.027 1.26147
rtoes -6.81382
lfemur -87.2182 0.214803 -31.4482
ltibia 119.912
lfoot -11.5639 0.208887
ltoes -58.2252
242
root 11.8673 16.2985 0.328375 -7.54012 -38.1832 4.16275
lowerback 35.3414 7.53161 3.65672
upperback 19.5384 9.61796 15.0714
thorax 1.47944 3.81317 11.1573
lowerneck 5.59912 -2.57549 2.81679
upperneck -7.48439 -3.41149 -2.24944
head -3.51386 -1.69129 -1.07009
rclavicle -2.8625e-014 2.22639e-014
rhumerus 21.2693 37.9815 -104.149
rradius 129.992
rwrist -64.4671
rhand 72.0933 -74.0437
rfingers 7.12502
rthumb 72.7128 0.250315
lclavicle -2.8625e-014 2.22639e-014
lhumerus 23.5073 -33.6811 98.0036
lradius 63.8361
lwrist -28.0356
lhand 11.2115 -26.4741
lfingers 7.12502
lthumb 36.2745 -0.225489
rfemur -87.5552 -16.5966 26.0763
rtibia 116.516
rfoot -16.0974 1.10559
rtoes -12.7524
lfemur -87.4799 0.120666 -31.3617
ltibia 120.1
lfoot -11.476 0.230457
ltoes -58.2189
243
root 11.8742 16.3073 0.325516 -7.42858 -38.1969 3.9628
lowerback 35.3574 7.47436 3.79167
upperback 19.5817 9.57276 15.1311
thorax 1.54188 3.79078 11.1734
lowerneck 5.38254 -2.59983 2.87168
upperneck -7.36127 -3.46025 -2.44321
head -3.43708 -1.71114 -1.14364
rclavicle -3.18055e-014 6.99722e-014
rhumerus 21.3519 38.0636 -104.041
rradius 129.966
rwrist -64.6885
rhand 72.6466 -74.3069
rfingers 7.12502
rthumb 72.4357 1.51294
lclavicle -3.18055e-014 6.99722e-014
lhumerus 23.4546 -33.5114 98.11
lradius 64.0291
lwrist -28.0291
lhand 11.4647 -26.5432
lfingers 7.12502
lthumb 36.5142 -0.354673
rfemur -87.4188 -16.6156 26.2367
rtibia 116.433
rfoot -16.1652 1.09836
rtoes -12.8607
lfemur -87.3925 0.0489004 -31.1803
ltibia 120.062
lfoot -11.5295 0.326549
ltoes -58.439
244
root 11.8714 16.3085 0.325182 -7.57644 -38.3588 4.03559
lowerback 35.5078 7.55555 3.68614
upperback 19.6496 9.63626 15.1445
thorax 1.53234 3.80832 11.2141
lowerneck 5.29744 -2.70601 2.81293
upperneck -7.28568 -3.60197 -2.35699
head -3.39477 -1.78392 -1.09867
rclavicle 1.27222e-014 -7.63333e-014
rhumerus 21.385 38.0962 -104.003
rradius 129.967
rwrist -64.8106
rhand 72.9503 -74.4256
rfingers 7.12502
rthumb 72.2782 2.21089
lclavicle 1.27222e-014 -7.63333e-014
lhumerus 23.4768 -33.3925 98.1243
lradius 64.154
lwrist -28.1154
lhand 11.7324 -26.5779
lfingers 7.12502
lthumb 36.7676 -0.453711
rfemur -87.2681 -16.449 26.1706
rtibia 116.435
rfoot -16.1734 1.12282
rtoes -9.90799
lfemur -87.2076 0.343339 -31.2544
ltibia 120.096
lfoot -11.6856 0.332928
ltoes -58.7667
245
root 11.8763 16.2988 0.332699 -7.40127 -38.2312 3.88368
lowerback 35.3893 7.39074 3.9868
upperback 19.6424 9.50365 15.0875
thorax 1.65711 3.76464 11.0556
lowerneck 5.26512 -2.61266 2.81516
upperneck -7.12588 -3.47176 -2.33949
head -3.32888 -1.71953 -1.10007
rclavicle -1.90833e-014 3.18055e-015
rhumerus 21.4498 38.0215 -104.026
rradius 129.982
rwrist -64.938
rhand 72.7847 -74.3653
rfingers 7.12502
rthumb 72.3645 1.8277
lclavicle -1.90833e-014 3.18055e-015
lhumerus 23.518 -33.3371 98.0834
lradius 64.2179
lwrist -28.2812
lhand 11.8891 -26.6048
lfingers 7.12502
lthumb 36.9158 -0.518566
rfemur -87.4409 -16.6529 26.2777
rtibia 116.487
rfoot -16.2011 1.06074
rtoes -14.5303
lfemur -87.4165 0.105664 -31.1991
ltibia 120.182
lfoot -11.6471 0.445126
ltoes -58.9012
246
root 11.8783 16.2967 0.335273 -7.21139 -38.2109 3.66195
lowerback 35.3372 7.31741 4.25716
upperback 19.6335 9.4813 15.0777
thorax 1.72171 3.77138 10.9185
lowerneck 5.33853 -2.66926 2.83643
upperneck -7.26947 -3.54025 -2.25929
head -3.39319 -1.75705 -1.0732
rclavicle -9.54166e-015 2.22639e-014
rhumerus 21.5386 37.9213 -104.028
rradius 129.965
rwrist -65.0355
rhand 72.6125 -74.2737
rfingers 7.12502
rthumb 72.4531 1.45357
lclavicle -9.54166e-015 2.22639e-014
lhumerus 23.4895 -33.3447 98.1287
lradius 64.2474
lwrist -28.3573
lhand 11.831 -26.5889
lfingers 7.12502
lthumb 36.8608 -0.488585
rfemur -87.464 -16.6448 26.4427
rtibia 116.48
rfoot -16.1909 1.17462
rtoes -8.6229
lfemur -87.5586 0.0970457 -31.0445
ltibia 120.239
lfoot -11.6112 0.438652
ltoes -58.9244
247
root 11.8793 16.2973 0.33722 -7.20887 -38.1862 3.69714
lowerback 35.3784 7.33033 4.2812
upperback 19.5782 9.51987 15.076
thorax 1.64393 3.79537 10.8814
lowerneck 5.41201 -2.70748 2.98664
upperneck -7.27311 -3.58142 -2.31938
head -3.41557 -1.77878 -1.1169
rclavicle -1.01778e-013 -7.31528e-014
rhumerus 21.5133 37.8148 -103.991
rradius 129.963
rwrist -64.9607
rhand 72.7761 -74.1135
rfingers 7.12502
rthumb 72.369 2.0562
lclavicle -1.01778e-013 -7.31528e-014
lhumerus 23.3265 -33.3864 98.2728
lradius 64.3336
lwrist -28.322
lhand 11.7238 -26.5293
lfingers 7.12502
lthumb 36.7594 -0.403009
rfemur -87.5033 -16.7002 26.4087
rtibia 116.495
rfoot -16.2088 1.30896
rtoes -5.24446
lfemur -87.5465 0.0489071 -31.102
ltibia 120.238
lfoot -11.6518 0.575177
ltoes -59.0225
248
root 11.88 16.297 0.337718 -7.33552 -38.1791 3.84858
lowerback 35.4886 7.37169 4.1675
upperback 19.5286 9.5598 15.0616
thorax 1.52547 3.8106 10.8953
lowerneck 5.35687 -2.74638 3.12485
upperneck -7.12375 -3.62467 -2.37264
head -3.35972 -1.80192 -1.15761
rclavicle 1.74931e-013 6.99722e-014
rhumerus 21.4363 37.7193 -103.991
rradius 129.988
rwrist -64.8646
rhand 72.9544 -73.9646
rfingers 7.12502
rthumb 72.276 2.68267
lclavicle 1.74931e-013 6.99722e-014
lhumerus 23.1324 -33.3622 98.3824
lradius 64.4696
lwrist -28.2273
lhand 11.6971 -26.564
lfingers 7.12502
lthumb 36.7341 -0.431251
rfemur -87.489 -16.7469 26.2734
rtibia 116.51
rfoot -16.1857 1.36297
rtoes -5.91486
lfemur -87.4466 0.02209 -31.2467
ltibia 120.222
lfoot -11.7265 0.691941
ltoes -59.2227
249
root 11.8789 16.2953 0.337161 -7.42294 -38.2444 3.94052
lowerback 35.5197 7.41284 4.01888
upperback 19.5335 9.57103 15.067
thorax 1.4893 3.80551 10.9706
lowerneck 5.31365 -2.7197 3.12485
upperneck -6.96747 -3.58706 -2.37602
head -3.29625 -1.7828 -1.16113
rclavicle -9.22361e-014 -1.59028e-014
rhumerus 21.3889 37.7965 -104.028
rradius 129.968
rwrist -64.8388
rhand 73.1171 -73.9359
rfingers 7.12502
rthumb 72.1902 3.14271
lclavicle -9.22361e-014 -1.59028e-014
lhumerus 22.997 -33.203 98.4323
lradius 64.5615
lwrist -28.1548
lhand 11.6799 -26.576
lfingers 7.12502
lthumb 36.7179 -0.439106
rfemur -87.4365 -16.6334 26.1977
rtibia 116.504
rfoot -16.16 1.26552
rtoes -7.81189
lfemur -87.424 0.119278 -31.314
ltibia 120.231
lfoot -11.7464 0.673006
ltoes -59.3438
